<?xml version="1.0" encoding="iso-8859-1"?>
<!-- Generator: Adobe Illustrator 19.0.0, SVG Export Plug-In . SVG Version: 6.00 Build 0)  -->
<svg version="1.1" id="Layer_1" xmlns="http://www.w3.org/2000/svg" xmlns:xlink="http://www.w3.org/1999/xlink" x="0px" y="0px"
	 viewBox="0 0 512.001 512.001" style="enable-background:new 0 0 512.001 512.001;" xml:space="preserve">
<g>
	<g>
		<path d="M437.019,74.981C388.667,26.63,324.38,0.001,255.999,0.001c-68.38,0-132.667,26.629-181.019,74.981
			C26.628,123.333,0,187.62,0,256s26.628,132.667,74.981,181.02c48.352,48.351,112.639,74.981,181.02,74.981
			c68.38,0,132.667-26.628,181.02-74.981c48.351-48.352,74.981-112.64,74.981-181.02S485.372,123.333,437.019,74.981z M15.726,256
			c0-51.871,16.332-101.226,46.552-142.21c58.791,22.446,97.81,78.719,97.81,142.21c0,63.498-39.016,119.763-97.81,142.21
			C32.058,357.227,15.726,307.871,15.726,256z M425.899,425.899c-45.381,45.382-105.72,70.374-169.899,70.374
			S131.482,471.281,86.1,425.899c-4.775-4.777-9.312-9.727-13.631-14.821c62.312-25.889,103.344-86.682,103.344-155.077
			c0-68.387-41.036-129.188-103.344-155.077c4.319-5.094,8.856-10.046,13.631-14.822c45.382-45.382,105.72-70.375,169.899-70.375
			S380.517,40.72,425.899,86.101c4.775,4.776,9.312,9.727,13.631,14.821C377.218,126.811,336.186,187.604,336.186,256
			s41.032,129.189,103.344,155.078C435.211,416.172,430.674,421.124,425.899,425.899z M351.912,256
			c0-63.497,39.016-119.763,97.81-142.21c30.22,40.984,46.552,90.34,46.552,142.21c0,51.87-16.332,101.227-46.552,142.21
			C390.928,375.763,351.912,319.497,351.912,256z"/>
	</g>
</g>
<g>
</g>
<g>
</g>
<g>
</g>
<g>
</g>
<g>
</g>
<g>
</g>
<g>
</g>
<g>
</g>
<g>
</g>
<g>
</g>
<g>
</g>
<g>
</g>
<g>
</g>
<g>
</g>
<g>
</g>
</svg>
